<mxfile host="65bd71144e">
    <diagram name="Page-1" id="sdvgh28ht-uhzKrX0wdQ">
        <mxGraphModel dx="761" dy="468" grid="1" gridSize="10" guides="1" tooltips="1" connect="1" arrows="1" fold="1" page="1" pageScale="1" pageWidth="850" pageHeight="1100" math="0" shadow="0">
            <root>
                <mxCell id="0"/>
                <mxCell id="1" parent="0"/>
                <mxCell id="_jkQKSX7ZgtTVUDQ-TFb-1" value="31" style="rounded=1;whiteSpace=wrap;html=1;fillColor=#b1aeb7;" parent="1" vertex="1">
                    <mxGeometry x="120" y="240" width="40" height="40" as="geometry"/>
                </mxCell>
                <mxCell id="_jkQKSX7ZgtTVUDQ-TFb-2" value="&lt;font color=&quot;#ffffff&quot;&gt;41&lt;/font&gt;" style="rounded=1;whiteSpace=wrap;html=1;fillColor=#000000;" parent="1" vertex="1">
                    <mxGeometry x="160" y="240" width="40" height="40" as="geometry"/>
                </mxCell>
                <mxCell id="_jkQKSX7ZgtTVUDQ-TFb-3" value="59" style="rounded=1;whiteSpace=wrap;html=1;" parent="1" vertex="1">
                    <mxGeometry x="200" y="240" width="40" height="40" as="geometry"/>
                </mxCell>
                <mxCell id="_jkQKSX7ZgtTVUDQ-TFb-4" value="26" style="rounded=1;whiteSpace=wrap;html=1;" parent="1" vertex="1">
                    <mxGeometry x="240" y="240" width="40" height="40" as="geometry"/>
                </mxCell>
                <mxCell id="_jkQKSX7ZgtTVUDQ-TFb-5" value="41" style="rounded=1;whiteSpace=wrap;html=1;" parent="1" vertex="1">
                    <mxGeometry x="280" y="240" width="40" height="40" as="geometry"/>
                </mxCell>
                <mxCell id="_jkQKSX7ZgtTVUDQ-TFb-6" value="58" style="rounded=1;whiteSpace=wrap;html=1;" parent="1" vertex="1">
                    <mxGeometry x="320" y="240" width="40" height="40" as="geometry"/>
                </mxCell>
                <mxCell id="_jkQKSX7ZgtTVUDQ-TFb-8" value="" style="curved=1;endArrow=classic;html=1;rounded=0;exitX=0.5;exitY=1;exitDx=0;exitDy=0;entryX=0.25;entryY=1;entryDx=0;entryDy=0;" parent="1" source="_jkQKSX7ZgtTVUDQ-TFb-2" target="_jkQKSX7ZgtTVUDQ-TFb-2" edge="1">
                    <mxGeometry width="50" height="50" relative="1" as="geometry">
                        <mxPoint x="120" y="310" as="sourcePoint"/>
                        <mxPoint x="120" y="310" as="targetPoint"/>
                        <Array as="points">
                            <mxPoint x="190" y="300"/>
                            <mxPoint x="170" y="320"/>
                            <mxPoint x="150" y="300"/>
                        </Array>
                    </mxGeometry>
                </mxCell>
                <mxCell id="2" value="31" style="rounded=1;whiteSpace=wrap;html=1;fillColor=#b1aeb7;" parent="1" vertex="1">
                    <mxGeometry x="120" y="340" width="40" height="40" as="geometry"/>
                </mxCell>
                <mxCell id="3" value="&lt;font&gt;41&lt;/font&gt;" style="rounded=1;whiteSpace=wrap;html=1;fillColor=#b1aeb7;fontColor=#000000;" parent="1" vertex="1">
                    <mxGeometry x="160" y="340" width="40" height="40" as="geometry"/>
                </mxCell>
                <mxCell id="4" value="59" style="rounded=1;whiteSpace=wrap;fillColor=#000000;fontColor=#ffffff;" parent="1" vertex="1">
                    <mxGeometry x="200" y="340" width="40" height="40" as="geometry"/>
                </mxCell>
                <mxCell id="5" value="26" style="rounded=1;whiteSpace=wrap;html=1;" parent="1" vertex="1">
                    <mxGeometry x="240" y="340" width="40" height="40" as="geometry"/>
                </mxCell>
                <mxCell id="6" value="41" style="rounded=1;whiteSpace=wrap;html=1;" parent="1" vertex="1">
                    <mxGeometry x="280" y="340" width="40" height="40" as="geometry"/>
                </mxCell>
                <mxCell id="7" value="58" style="rounded=1;whiteSpace=wrap;html=1;" parent="1" vertex="1">
                    <mxGeometry x="320" y="340" width="40" height="40" as="geometry"/>
                </mxCell>
                <mxCell id="12" value="" style="curved=1;endArrow=classic;html=1;rounded=0;exitX=0.5;exitY=1;exitDx=0;exitDy=0;entryX=0.25;entryY=1;entryDx=0;entryDy=0;" parent="1" edge="1">
                    <mxGeometry width="50" height="50" relative="1" as="geometry">
                        <mxPoint x="220" y="380" as="sourcePoint"/>
                        <mxPoint x="210" y="380" as="targetPoint"/>
                        <Array as="points">
                            <mxPoint x="230" y="400"/>
                            <mxPoint x="210" y="420"/>
                            <mxPoint x="190" y="400"/>
                        </Array>
                    </mxGeometry>
                </mxCell>
                <mxCell id="13" value="31" style="rounded=1;whiteSpace=wrap;html=1;fillColor=#b1aeb7;" parent="1" vertex="1">
                    <mxGeometry x="120" y="440" width="40" height="40" as="geometry"/>
                </mxCell>
                <mxCell id="14" value="&lt;font&gt;41&lt;/font&gt;" style="rounded=1;whiteSpace=wrap;html=1;fillColor=#b1aeb7;fontColor=#000000;" parent="1" vertex="1">
                    <mxGeometry x="160" y="440" width="40" height="40" as="geometry"/>
                </mxCell>
                <mxCell id="15" value="59" style="rounded=1;whiteSpace=wrap;html=1;fillColor=#b1aeb7;" parent="1" vertex="1">
                    <mxGeometry x="200" y="440" width="40" height="40" as="geometry"/>
                </mxCell>
                <mxCell id="16" value="26" style="rounded=1;whiteSpace=wrap;html=1;fillColor=#000000;fontColor=#ffffff;" parent="1" vertex="1">
                    <mxGeometry x="240" y="440" width="40" height="40" as="geometry"/>
                </mxCell>
                <mxCell id="17" value="41" style="rounded=1;whiteSpace=wrap;html=1;" parent="1" vertex="1">
                    <mxGeometry x="280" y="440" width="40" height="40" as="geometry"/>
                </mxCell>
                <mxCell id="18" value="58" style="rounded=1;whiteSpace=wrap;html=1;" parent="1" vertex="1">
                    <mxGeometry x="320" y="440" width="40" height="40" as="geometry"/>
                </mxCell>
                <mxCell id="19" value="" style="curved=1;endArrow=classic;html=1;rounded=0;exitX=0.5;exitY=1;exitDx=0;exitDy=0;entryX=0.5;entryY=1;entryDx=0;entryDy=0;" parent="1" target="15" edge="1">
                    <mxGeometry width="50" height="50" relative="1" as="geometry">
                        <mxPoint x="260" y="480" as="sourcePoint"/>
                        <mxPoint x="250" y="480" as="targetPoint"/>
                        <Array as="points">
                            <mxPoint x="260" y="500"/>
                            <mxPoint x="240" y="520"/>
                            <mxPoint x="220" y="500"/>
                        </Array>
                    </mxGeometry>
                </mxCell>
                <mxCell id="21" value="" style="curved=1;endArrow=classic;html=1;rounded=0;exitX=0.5;exitY=1;exitDx=0;exitDy=0;entryX=0.5;entryY=1;entryDx=0;entryDy=0;" parent="1" edge="1">
                    <mxGeometry width="50" height="50" relative="1" as="geometry">
                        <mxPoint x="220" y="480" as="sourcePoint"/>
                        <mxPoint x="180" y="480" as="targetPoint"/>
                        <Array as="points">
                            <mxPoint x="220" y="500"/>
                            <mxPoint x="200" y="520"/>
                            <mxPoint x="180" y="500"/>
                        </Array>
                    </mxGeometry>
                </mxCell>
                <mxCell id="22" value="" style="curved=1;endArrow=classic;html=1;rounded=0;exitX=0.5;exitY=1;exitDx=0;exitDy=0;entryX=0.5;entryY=1;entryDx=0;entryDy=0;" parent="1" edge="1">
                    <mxGeometry width="50" height="50" relative="1" as="geometry">
                        <mxPoint x="180" y="480" as="sourcePoint"/>
                        <mxPoint x="140" y="480" as="targetPoint"/>
                        <Array as="points">
                            <mxPoint x="180" y="500"/>
                            <mxPoint x="160" y="520"/>
                            <mxPoint x="140" y="500"/>
                        </Array>
                    </mxGeometry>
                </mxCell>
                <mxCell id="23" value="31" style="rounded=1;whiteSpace=wrap;html=1;fillColor=#b1aeb7;" parent="1" vertex="1">
                    <mxGeometry x="480" y="240" width="40" height="40" as="geometry"/>
                </mxCell>
                <mxCell id="24" value="&lt;font&gt;41&lt;/font&gt;" style="rounded=1;whiteSpace=wrap;html=1;fillColor=#b1aeb7;fontColor=#000000;" parent="1" vertex="1">
                    <mxGeometry x="520" y="240" width="40" height="40" as="geometry"/>
                </mxCell>
                <mxCell id="25" value="59" style="rounded=1;whiteSpace=wrap;html=1;fillColor=#b1aeb7;" parent="1" vertex="1">
                    <mxGeometry x="560" y="240" width="40" height="40" as="geometry"/>
                </mxCell>
                <mxCell id="26" value="26" style="rounded=1;whiteSpace=wrap;html=1;fillColor=#b1aeb7;" parent="1" vertex="1">
                    <mxGeometry x="440" y="240" width="40" height="40" as="geometry"/>
                </mxCell>
                <mxCell id="27" value="41" style="rounded=1;whiteSpace=wrap;html=1;fillColor=#000000;fontColor=#ffffff;" parent="1" vertex="1">
                    <mxGeometry x="600" y="240" width="40" height="40" as="geometry"/>
                </mxCell>
                <mxCell id="28" value="58" style="rounded=1;whiteSpace=wrap;html=1;" parent="1" vertex="1">
                    <mxGeometry x="640" y="240" width="40" height="40" as="geometry"/>
                </mxCell>
                <mxCell id="32" value="" style="curved=1;endArrow=classic;html=1;rounded=0;exitX=0.5;exitY=1;exitDx=0;exitDy=0;entryX=0.5;entryY=1;entryDx=0;entryDy=0;" edge="1" parent="1">
                    <mxGeometry width="50" height="50" relative="1" as="geometry">
                        <mxPoint x="620" y="280" as="sourcePoint"/>
                        <mxPoint x="580" y="280" as="targetPoint"/>
                        <Array as="points">
                            <mxPoint x="620" y="300"/>
                            <mxPoint x="600" y="320"/>
                            <mxPoint x="580" y="300"/>
                        </Array>
                    </mxGeometry>
                </mxCell>
                <mxCell id="33" value="31" style="rounded=1;whiteSpace=wrap;html=1;fillColor=#b1aeb7;" vertex="1" parent="1">
                    <mxGeometry x="480" y="330" width="40" height="40" as="geometry"/>
                </mxCell>
                <mxCell id="34" value="&lt;font&gt;41&lt;/font&gt;" style="rounded=1;whiteSpace=wrap;html=1;fillColor=#b1aeb7;fontColor=#000000;" vertex="1" parent="1">
                    <mxGeometry x="520" y="330" width="40" height="40" as="geometry"/>
                </mxCell>
                <mxCell id="35" value="59" style="rounded=1;whiteSpace=wrap;html=1;fillColor=#b1aeb7;" vertex="1" parent="1">
                    <mxGeometry x="600" y="330" width="40" height="40" as="geometry"/>
                </mxCell>
                <mxCell id="36" value="26" style="rounded=1;whiteSpace=wrap;html=1;fillColor=#b1aeb7;" vertex="1" parent="1">
                    <mxGeometry x="440" y="330" width="40" height="40" as="geometry"/>
                </mxCell>
                <mxCell id="37" value="41" style="rounded=1;whiteSpace=wrap;html=1;fillColor=#b1aeb7;fontColor=default;" vertex="1" parent="1">
                    <mxGeometry x="560" y="330" width="40" height="40" as="geometry"/>
                </mxCell>
                <mxCell id="38" value="58" style="rounded=1;whiteSpace=wrap;html=1;fillColor=#000000;fontColor=#ffffff;" vertex="1" parent="1">
                    <mxGeometry x="640" y="330" width="40" height="40" as="geometry"/>
                </mxCell>
                <mxCell id="39" value="" style="curved=1;endArrow=classic;html=1;rounded=0;exitX=0.5;exitY=1;exitDx=0;exitDy=0;entryX=0.5;entryY=1;entryDx=0;entryDy=0;" edge="1" parent="1">
                    <mxGeometry width="50" height="50" relative="1" as="geometry">
                        <mxPoint x="660" y="370" as="sourcePoint"/>
                        <mxPoint x="620" y="370" as="targetPoint"/>
                        <Array as="points">
                            <mxPoint x="660" y="390"/>
                            <mxPoint x="640" y="410"/>
                            <mxPoint x="620" y="390"/>
                        </Array>
                    </mxGeometry>
                </mxCell>
                <mxCell id="46" value="31" style="rounded=1;whiteSpace=wrap;html=1;fillColor=#b1aeb7;" vertex="1" parent="1">
                    <mxGeometry x="480" y="440" width="40" height="40" as="geometry"/>
                </mxCell>
                <mxCell id="47" value="&lt;font&gt;41&lt;/font&gt;" style="rounded=1;whiteSpace=wrap;html=1;fillColor=#b1aeb7;fontColor=#000000;" vertex="1" parent="1">
                    <mxGeometry x="520" y="440" width="40" height="40" as="geometry"/>
                </mxCell>
                <mxCell id="48" value="59" style="rounded=1;whiteSpace=wrap;html=1;fillColor=#b1aeb7;" vertex="1" parent="1">
                    <mxGeometry x="640" y="440" width="40" height="40" as="geometry"/>
                </mxCell>
                <mxCell id="49" value="26" style="rounded=1;whiteSpace=wrap;html=1;fillColor=#b1aeb7;" vertex="1" parent="1">
                    <mxGeometry x="440" y="440" width="40" height="40" as="geometry"/>
                </mxCell>
                <mxCell id="50" value="41" style="rounded=1;whiteSpace=wrap;html=1;fillColor=#b1aeb7;fontColor=default;" vertex="1" parent="1">
                    <mxGeometry x="560" y="440" width="40" height="40" as="geometry"/>
                </mxCell>
                <mxCell id="51" value="58" style="rounded=1;whiteSpace=wrap;html=1;fillColor=#b1aeb7;fontColor=default;" vertex="1" parent="1">
                    <mxGeometry x="600" y="440" width="40" height="40" as="geometry"/>
                </mxCell>
                <mxCell id="53" value="&lt;font color=&quot;#130101&quot; style=&quot;font-size: 16px;&quot;&gt;A)&lt;/font&gt;" style="text;html=1;strokeColor=none;fillColor=none;align=center;verticalAlign=middle;whiteSpace=wrap;rounded=0;fontColor=#ffffff;fontSize=16;" vertex="1" parent="1">
                    <mxGeometry x="90" y="200" width="40" height="30" as="geometry"/>
                </mxCell>
                <mxCell id="54" value="&lt;font color=&quot;#130101&quot; style=&quot;font-size: 16px;&quot;&gt;B)&lt;/font&gt;" style="text;html=1;strokeColor=none;fillColor=none;align=center;verticalAlign=middle;whiteSpace=wrap;rounded=0;fontColor=#ffffff;fontSize=16;" vertex="1" parent="1">
                    <mxGeometry x="90" y="310" width="40" height="30" as="geometry"/>
                </mxCell>
                <mxCell id="55" value="&lt;font color=&quot;#130101&quot; style=&quot;font-size: 16px;&quot;&gt;C)&lt;/font&gt;" style="text;html=1;strokeColor=none;fillColor=none;align=center;verticalAlign=middle;whiteSpace=wrap;rounded=0;fontColor=#ffffff;fontSize=16;" vertex="1" parent="1">
                    <mxGeometry x="90" y="410" width="40" height="30" as="geometry"/>
                </mxCell>
                <mxCell id="56" value="&lt;font color=&quot;#130101&quot; style=&quot;font-size: 16px;&quot;&gt;D)&lt;/font&gt;" style="text;html=1;strokeColor=none;fillColor=none;align=center;verticalAlign=middle;whiteSpace=wrap;rounded=0;fontColor=#ffffff;fontSize=16;" vertex="1" parent="1">
                    <mxGeometry x="405" y="200" width="40" height="30" as="geometry"/>
                </mxCell>
                <mxCell id="58" value="&lt;font color=&quot;#130101&quot; style=&quot;font-size: 16px;&quot;&gt;E)&lt;/font&gt;" style="text;html=1;strokeColor=none;fillColor=none;align=center;verticalAlign=middle;whiteSpace=wrap;rounded=0;fontColor=#ffffff;fontSize=16;" vertex="1" parent="1">
                    <mxGeometry x="400" y="300" width="40" height="30" as="geometry"/>
                </mxCell>
                <mxCell id="59" value="&lt;font color=&quot;#130101&quot; style=&quot;font-size: 16px;&quot;&gt;F)&lt;/font&gt;" style="text;html=1;strokeColor=none;fillColor=none;align=center;verticalAlign=middle;whiteSpace=wrap;rounded=0;fontColor=#ffffff;fontSize=16;" vertex="1" parent="1">
                    <mxGeometry x="405" y="410" width="40" height="30" as="geometry"/>
                </mxCell>
            </root>
        </mxGraphModel>
    </diagram>
</mxfile>